<svg xmlns="http://www.w3.org/2000/svg" width="135" height="40" viewBox="0 0 135 40"><path fill="#fff" d="M134.032 35.268c0 2.116-1.714 3.83-3.834 3.83H4.728c-2.118 0-3.838-1.714-3.838-3.83V4.725C.89 2.61 2.61.89 4.73.89h125.467c2.12 0 3.834 1.72 3.834 3.835l.003 30.543z"/><path fill="#A6A6A6" d="M130.198 39.99H4.728C2.123 39.99 0 37.87 0 35.267V4.727C0 2.12 2.122 0 4.73 0h125.467c2.604 0 4.73 2.12 4.73 4.726v30.542c0 2.604-2.124 4.72-4.73 4.72z"/><path d="M134.032 35.268c0 2.116-1.714 3.83-3.834 3.83H4.728c-2.118 0-3.838-1.714-3.838-3.83V4.725C.89 2.61 2.61.89 4.73.89h125.467c2.12 0 3.834 1.72 3.834 3.835l.003 30.543z"/><path fill="#fff" d="M30.128 19.784c-.03-3.223 2.64-4.79 2.76-4.864-1.51-2.203-3.852-2.504-4.675-2.528-1.967-.207-3.875 1.177-4.877 1.177-1.022 0-2.565-1.16-4.228-1.125-2.14.033-4.142 1.272-5.24 3.196-2.266 3.924-.576 9.69 1.595 12.86 1.086 1.554 2.355 3.287 4.016 3.226 1.623-.066 2.23-1.035 4.19-1.035 1.944 0 2.514 1.036 4.208.997 1.743-.027 2.84-1.56 3.89-3.127 1.254-1.778 1.758-3.532 1.778-3.622-.04-.014-3.386-1.292-3.42-5.154zm-3.2-9.478c.874-1.093 1.472-2.58 1.306-4.09-1.265.057-2.847.876-3.758 1.945-.806.944-1.526 2.488-1.34 3.94 1.42.106 2.88-.717 3.792-1.793z"/><linearGradient id="a" gradientUnits="userSpaceOnUse" x1="98.961" y1=".903" x2="98.961" y2="36.949" gradientTransform="matrix(1 0 0 -1 0 41)"><stop offset="0" stop-color="#1A1A1A" stop-opacity=".1"/><stop offset=".123" stop-color="#212121" stop-opacity=".151"/><stop offset=".308" stop-color="#353535" stop-opacity=".227"/><stop offset=".532" stop-color="#575757" stop-opacity=".318"/><stop offset=".783" stop-color="#858585" stop-opacity=".421"/><stop offset="1" stop-color="#B3B3B3" stop-opacity=".51"/></linearGradient><path fill="url(#a)" d="M130.198 0H62.993l26.323 39.99h40.882c2.604 0 4.73-2.118 4.73-4.725V4.725c0-2.605-2.125-4.725-4.73-4.725z"/><path d="M53.665 31.504h-2.27l-1.245-3.91h-4.324l-1.185 3.91h-2.21l4.286-13.308h2.646l4.305 13.308zm-3.89-5.55L48.65 22.48c-.12-.355-.343-1.19-.67-2.507h-.04c-.133.566-.344 1.402-.633 2.507L46.2 25.955h3.575zm14.888.634c0 1.632-.443 2.922-1.33 3.87-.794.842-1.78 1.263-2.958 1.263-1.27 0-2.185-.45-2.74-1.36v5.036h-2.132V25.062c0-1.025-.027-2.076-.08-3.154H57.3l.118 1.52h.04c.71-1.145 1.79-1.718 3.238-1.718 1.132 0 2.077.447 2.833 1.342.753.897 1.132 2.075 1.132 3.536zm-2.172.078c0-.934-.21-1.704-.63-2.31-.46-.632-1.08-.948-1.856-.948-.526 0-1.004.176-1.43.523-.43.35-.71.81-.84 1.375-.066.264-.1.48-.1.65v1.6c0 .697.215 1.286.643 1.768.428.48.984.72 1.668.72.803 0 1.428-.31 1.875-.927.447-.62.67-1.435.67-2.45zm13.21-.078c0 1.632-.442 2.922-1.33 3.87-.794.842-1.78 1.263-2.96 1.263-1.27 0-2.183-.45-2.74-1.36v5.036h-2.13V25.062c0-1.025-.027-2.076-.08-3.154h1.876l.12 1.52h.04c.71-1.145 1.788-1.718 3.237-1.718 1.13 0 2.076.447 2.834 1.342.754.897 1.134 2.075 1.134 3.536zm-2.172.078c0-.934-.21-1.704-.633-2.31-.46-.632-1.078-.948-1.854-.948-.525 0-1.003.176-1.432.523-.428.35-.707.81-.838 1.375-.066.264-.1.48-.1.65v1.6c0 .697.214 1.286.64 1.768.428.48.984.72 1.67.72.804 0 1.43-.31 1.875-.927.448-.62.672-1.435.672-2.45zM88.04 27.77c0 1.134-.396 2.055-1.183 2.766-.866.776-2.075 1.165-3.625 1.165-1.432 0-2.58-.274-3.446-.827l.493-1.777c.933.554 1.96.83 3.08.83.802 0 1.427-.182 1.873-.543.447-.362.673-.846.673-1.45 0-.54-.187-.994-.554-1.363-.37-.37-.98-.712-1.836-1.027-2.33-.87-3.496-2.14-3.496-3.812 0-1.09.413-1.984 1.235-2.683.822-.698 1.912-1.047 3.268-1.047 1.21 0 2.22.21 3.02.63l-.534 1.74c-.756-.41-1.607-.613-2.56-.613-.75 0-1.34.185-1.763.553-.355.33-.535.73-.535 1.206 0 .525.205.96.613 1.303.354.313 1 .656 1.934 1.024 1.145.462 1.987 1 2.526 1.618.543.618.813 1.39.813 2.308zm7.067-4.262h-2.35v4.66c0 1.184.414 1.775 1.244 1.775.383 0 .7-.032.95-.1l.06 1.62c-.42.157-.975.236-1.66.236-.84 0-1.5-.26-1.975-.773-.473-.514-.71-1.375-.71-2.587v-4.836h-1.4v-1.6h1.4v-1.757l2.093-.632v2.39h2.35v1.603zm10.582 3.12c0 1.474-.424 2.685-1.266 3.632-.88.975-2.053 1.46-3.514 1.46-1.41 0-2.53-.466-3.366-1.4-.836-.934-1.254-2.112-1.254-3.533 0-1.487.432-2.705 1.293-3.652.863-.948 2.025-1.422 3.486-1.422 1.406 0 2.537.468 3.393 1.402.818.906 1.225 2.076 1.225 3.512zm-2.21.048c0-.88-.19-1.633-.573-2.264-.447-.762-1.087-1.143-1.916-1.143-.853 0-1.51.38-1.954 1.14-.382.63-.572 1.4-.572 2.305 0 .88.19 1.636.572 2.265.46.763 1.104 1.144 1.937 1.144.815 0 1.454-.39 1.916-1.162.39-.646.59-1.405.59-2.286zm9.14-2.893c-.21-.04-.436-.06-.67-.06-.75 0-1.33.283-1.74.85-.353.5-.53 1.133-.53 1.896v5.033h-2.133V24.93c0-1.105-.02-2.113-.062-3.02h1.857l.078 1.835h.06c.226-.63.58-1.14 1.066-1.52.475-.344.988-.515 1.54-.515.198 0 .376.014.534.04l.002 2.033zm9.536 2.47c0 .38-.025.703-.078.966h-6.397c.025.946.335 1.672.93 2.172.54.446 1.236.67 2.092.67.947 0 1.81-.15 2.588-.453l.335 1.48c-.908.394-1.98.59-3.217.59-1.488 0-2.656-.437-3.506-1.31-.848-.876-1.273-2.05-1.273-3.525 0-1.446.393-2.65 1.184-3.612.828-1.026 1.947-1.54 3.355-1.54 1.382 0 2.43.514 3.14 1.54.563.813.846 1.82.846 3.018zm-2.033-.554c.015-.635-.125-1.18-.414-1.64-.37-.595-.938-.89-1.7-.89-.696 0-1.264.29-1.696.87-.355.46-.566 1.013-.63 1.656l4.44.002zM45.21 13.49c-.592 0-1.105-.028-1.532-.077V6.98c.553-.088 1.154-.137 1.805-.137 2.445 0 3.57 1.203 3.57 3.164 0 2.262-1.33 3.484-3.842 3.484zm.36-5.822c-.33 0-.612.02-.845.068v4.89c.126.02.368.03.708.03 1.602 0 2.514-.912 2.514-2.62 0-1.523-.825-2.368-2.378-2.368zm6.993 5.872c-1.378 0-2.27-1.03-2.27-2.426 0-1.456.91-2.494 2.348-2.494 1.36 0 2.273.98 2.273 2.417 0 1.474-.94 2.503-2.35 2.503zm.04-4.154c-.757 0-1.242.708-1.242 1.698 0 .97.497 1.68 1.234 1.68s1.232-.758 1.232-1.7c0-.96-.485-1.678-1.222-1.678zm10.167-.67l-1.475 4.717h-.96l-.612-2.048c-.155-.514-.28-1.02-.38-1.523h-.02c-.076.514-.222 1.03-.377 1.523l-.65 2.048h-.97l-1.39-4.716h1.078l.534 2.242c.126.532.232 1.036.32 1.512h.02c.077-.397.203-.893.388-1.504l.67-2.252h.854l.64 2.203c.156.534.282 1.06.38 1.553h.028c.068-.485.175-1 .32-1.553l.573-2.202h1.03zm5.43 4.717h-1.048v-2.708c0-.834-.32-1.252-.95-1.252-.622 0-1.05.534-1.05 1.155v2.805h-1.047v-3.368c0-.417-.01-.864-.04-1.35h.923l.05.73h.028c.282-.505.854-.825 1.495-.825.99 0 1.64.757 1.64 1.99v2.823zm2.89 0h-1.05v-6.88h1.05v6.88zm3.82.107c-1.376 0-2.27-1.03-2.27-2.426 0-1.456.912-2.494 2.348-2.494 1.36 0 2.27.98 2.27 2.417.002 1.474-.94 2.503-2.347 2.503zm.04-4.154c-.757 0-1.242.708-1.242 1.698 0 .97.496 1.68 1.23 1.68.74 0 1.233-.758 1.233-1.7.003-.96-.48-1.678-1.22-1.678zm6.44 4.047l-.075-.543h-.028c-.32.437-.787.65-1.38.65-.844 0-1.444-.592-1.444-1.388 0-1.164 1.01-1.766 2.756-1.766V10.3c0-.622-.33-.933-.98-.933-.466 0-.874.117-1.233.35l-.213-.69c.436-.27.98-.407 1.62-.407 1.23 0 1.853.65 1.853 1.95v1.738c0 .476.02.845.068 1.126h-.945zm-.143-2.35c-1.164 0-1.748.283-1.748.952 0 .495.3.737.717.737.533 0 1.03-.407 1.03-.96v-.728zm6.11 2.35l-.05-.757h-.028c-.303.572-.81.864-1.516.864-1.137 0-1.98-1-1.98-2.407 0-1.475.874-2.514 2.066-2.514.632 0 1.08.21 1.33.64h.022V6.552h1.05v5.61c0 .455.01.882.038 1.27h-.933zm-.155-2.775c0-.66-.437-1.223-1.104-1.223-.777 0-1.252.69-1.252 1.66 0 .95.493 1.6 1.23 1.6.66 0 1.126-.572 1.126-1.25v-.787zm7.7 2.882c-1.377 0-2.27-1.03-2.27-2.426 0-1.456.912-2.494 2.348-2.494 1.36 0 2.27.98 2.27 2.417.002 1.474-.94 2.503-2.348 2.503zm.04-4.154c-.757 0-1.242.708-1.242 1.698 0 .97.495 1.68 1.23 1.68.74 0 1.233-.758 1.233-1.7.002-.96-.483-1.678-1.222-1.678zm7.945 4.047h-1.05v-2.708c0-.834-.32-1.252-.95-1.252-.62 0-1.047.534-1.047 1.155v2.805h-1.05v-3.368c0-.417-.01-.864-.038-1.35h.922l.05.73h.028c.28-.505.854-.826 1.494-.826.99 0 1.64.755 1.64 1.987v2.825zm7.05-3.93h-1.152v2.29c0 .583.202.874.61.874.185 0 .34-.02.465-.05l.03.797c-.204.078-.476.117-.814.117-.826 0-1.32-.454-1.32-1.65V9.505h-.688v-.786h.688v-.864l1.03-.31v1.173h1.152v.787zm5.55 3.93h-1.048v-2.688c0-.844-.32-1.27-.953-1.27-.543 0-1.05.368-1.05 1.115v2.843h-1.046v-6.88h1.048v2.833h.02c.33-.514.808-.767 1.418-.767.998 0 1.608.774 1.608 2.007v2.805zm5.683-2.106h-3.145c.02.893.61 1.397 1.486 1.397.467 0 .895-.078 1.273-.223l.163.73c-.446.194-.97.29-1.582.29-1.475 0-2.348-.93-2.348-2.376 0-1.446.894-2.533 2.23-2.533 1.205 0 1.96.894 1.96 2.243.004.184-.005.35-.035.475zm-.96-.747c0-.728-.368-1.242-1.038-1.242-.602 0-1.078.524-1.146 1.242h2.183z" fill="#fff"/></svg>